IKResults
version=1
nRows=6
nColumns=63
inDegrees=yes

Units are S.I. units (second, meters, Newtons, ...)
If the header above contains a line with 'inDegrees', this indicates whether rotational values are in degrees (yes) or radians (no).

endheader
time	pelvis_tilt	pelvis_list	pelvis_rotation	pelvis_tx	pelvis_ty	pelvis_tz	hip_flexion_r	hip_adduction_r	hip_rotation_r	knee_angle_r	knee_angle_r_beta	ankle_angle_r	subtalar_angle_r	mtp_angle_r	hip_flexion_l	hip_adduction_l	hip_rotation_l	knee_angle_l	knee_angle_l_beta	ankle_angle_l	subtalar_angle_l	mtp_angle_l	L5_S1_Flex_Ext	L5_S1_Lat_Bending	L5_S1_axial_rotation	L4_L5_Flex_Ext	L4_L5_Lat_Bending	L4_L5_axial_rotation	L3_L4_Flex_Ext	L3_L4_Lat_Bending	L3_L4_axial_rotation	L2_L3_Flex_Ext	L2_L3_Lat_Bending	L2_L3_axial_rotation	L1_L2_Flex_Ext	L1_L2_Lat_Bending	L1_L2_axial_rotation	L1_T12_Flex_Ext	L1_T12_Lat_Bending	L1_T12_axial_rotation	Abs_r3	Abs_r2	Abs_r1	Abs_t1	Abs_t2	neck_flexion	neck_bending	neck_rotation	arm_flex_r	arm_add_r	arm_rot_r	elbow_flex_r	pro_sup_r	wrist_flex_r	wrist_dev_r	arm_flex_l	arm_add_l	arm_rot_l	elbow_flex_l	pro_sup_l	wrist_flex_l	wrist_dev_l
      4.03333333	    132.79445309	     78.93826677	    -92.06775010	     -0.36220634	      0.35823483	      0.22791896	    -18.10429714	     -2.12976742	    -31.19999744	     24.27382694	      0.42365820	      0.00000000	      0.00000000	      0.00000000	    -32.72827041	     -2.46837599	    -36.04514189	      0.12920304	      0.00225502	   -114.37674041	    -10.19039812	      0.00000000	     -5.81290286	      1.51114161	    -10.80285078	    -10.79514189	      2.00981835	    -11.47802896	     -9.55001810	      3.67418972	    -11.47802896	     -6.64356667	      3.67418972	     -9.45249444	     -5.39786159	      3.08151998	     -8.77731626	     -3.32149269	      2.34075836	     -8.10213809	    -41.52098381	     17.09433615	    -60.08221521	      0.00000000	      0.00000000	     23.42477692	      5.72952654	    -43.26427221	    116.10766870	     29.40267915	    -29.88569824	     38.44908031	     89.99559364	      0.00000000	      0.00000000	     36.53367503	      1.20240344	     38.56675296	     38.08330892	     89.99559364	      0.00000000	      0.00000000
      4.06666667	    132.87666458	     78.93541267	    -91.98794766	     -0.36241119	      0.35817388	      0.22774096	    -17.87921503	     -2.15504883	    -31.21024861	     24.26126554	      0.42343896	      0.00000000	      0.00000000	      0.00000000	    -32.93585501	     -2.63590469	    -35.97425529	      0.12439585	      0.00217112	   -114.36442372	    -10.26563639	      0.00000000	     -5.80672605	      1.51418492	    -10.82096999	    -10.78367095	      2.01386595	    -11.49728061	     -9.53987023	      3.68158923	    -11.49728061	     -6.63650721	      3.68158923	     -9.46834874	     -5.39212581	      3.08772590	     -8.79203811	     -3.31796327	      2.34547245	     -8.11572749	    -41.47686353	     17.12876270	    -60.18298878	      0.00000000	      0.00000000	     23.39945460	      5.70145295	    -43.19485866	    116.08641984	     29.35878228	    -29.92132665	     38.47190954	     89.99559364	      0.00000000	      0.00000000	     36.55408774	      1.15601299	     38.56717707	     38.09402583	     89.99559364	      0.00000000	      0.00000000
      4.10000000	    133.40220540	     78.95452660	    -91.57737614	     -0.36320527	      0.35921746	      0.22767497	    -17.67517522	     -2.03636728	    -31.37991987	     24.57346992	      0.42888796	      0.00000000	      0.00000000	      0.00000000	    -32.96849066	     -3.10091950	    -35.67852813	      0.12273394	      0.00214211	   -114.65494582	    -11.01820883	      0.00000000	     -5.79144192	      1.55031802	    -10.99252252	    -10.75528679	      2.06192297	    -11.67955518	     -9.51475993	      3.76944324	    -11.67955518	     -6.61903897	      3.76944324	     -9.61845721	     -5.37793297	      3.16140851	     -8.93142455	     -3.30922991	      2.40144262	     -8.24439189	    -41.36769048	     17.53750754	    -61.13711251	      0.00000000	      0.00000000	     23.49899700	      5.34217229	    -43.47134596	    116.04938487	     29.56296842	    -30.11270206	     38.70812915	     89.99559364	      0.00000000	      0.00000000	     36.55958876	      1.06120447	     38.66562714	     38.17620436	     89.99559364	      0.00000000	      0.00000000
      4.13333333	    135.05600065	     78.79655341	    -92.14913392	     -0.36405906	      0.35987909	      0.22773260	    -17.94737762	     -2.15973152	    -33.21340887	     24.39320852	      0.42574180	      0.00000000	      0.00000000	      0.00000000	    -33.02608461	     -3.42826746	    -36.21573016	      0.11963641	      0.00208805	   -116.30505285	    -13.59305217	      0.00000000	     -5.77313078	      1.54937182	    -11.19531638	    -10.72128117	      2.06066453	    -11.89502365	     -9.48467655	      3.76714265	    -11.89502365	     -6.59811116	      3.76714265	     -9.79590183	     -5.36092924	      3.15947902	     -9.09619455	     -3.29876693	      2.39997695	     -8.39648728	    -41.23689583	     17.52680394	    -62.26499108	      0.00000000	      0.00000000	     23.32072766	      5.42188477	    -43.52585449	    115.98370215	     30.03592053	    -31.67000555	     39.01659999	     89.99559364	      0.00000000	      0.00000000	     36.41975240	      0.84669886	     38.68011714	     38.37408881	     89.99559364	      0.00000000	      0.00000000
      4.16666667	    135.33542292	     78.75919847	    -92.22406404	     -0.36440949	      0.36003856	      0.22775433	    -17.78187803	     -2.23307802	    -33.09045846	     24.68542868	      0.43084201	      0.00000000	      0.00000000	      0.00000000	    -33.11119586	     -3.51742055	    -36.20370734	      0.11859905	      0.00206994	   -116.22669234	    -13.76155256	      0.00000000	     -5.77203668	      1.55455122	    -11.22962576	    -10.71924931	      2.06755312	    -11.93147737	     -9.48287906	      3.77973583	    -11.93147737	     -6.59686072	      3.77973583	     -9.82592254	     -5.35991326	      3.17004084	     -9.12407093	     -3.29814176	      2.40799983	     -8.42221932	    -41.22908078	     17.58539427	    -62.45580961	      0.00000000	      0.00000000	     23.40662063	      5.21765776	    -43.62112713	    115.96681587	     30.09679720	    -31.74115646	     39.16527822	     89.99559364	      0.00000000	      0.00000000	     36.44624440	      0.81041095	     38.67541641	     38.40749785	     89.99559364	      0.00000000	      0.00000000
      4.20000000	    135.38605437	     78.74317535	    -92.23179288	     -0.36449218	      0.36009300	      0.22775566	    -17.70613259	     -2.27621127	    -33.05982879	     24.70945655	      0.43126137	      0.00000000	      0.00000000	      0.00000000	    -33.16343996	     -3.55451765	    -36.17494566	      0.11683420	      0.00203914	   -116.19503210	    -13.79844753	      0.00000000	     -5.76912931	      1.55570138	    -11.23506866	    -10.71385004	      2.06908283	    -11.93726045	     -9.47810254	      3.78253233	    -11.93726045	     -6.59353789	      3.78253233	     -9.83068508	     -5.35721348	      3.17238625	     -9.12849329	     -3.29648049	      2.40978143	     -8.42630149	    -41.20831375	     17.59840512	    -62.48608136	      0.00000000	      0.00000000	     23.40964435	      5.20130782	    -43.61587500	    115.94063875	     30.08632129	    -31.76526157	     39.18242189	     89.99559364	      0.00000000	      0.00000000	     36.44505661	      0.80330538	     38.67078605	     38.41239045	     89.99559364	      0.00000000	      0.00000000
